<svg width="66" height="60" viewBox="0 0 66 60" fill="none" xmlns="http://www.w3.org/2000/svg">
<g clip-path="url(#clip0_108_2)">
<path d="M58.0997 33.1775C65.1627 26.2754 66.1481 14.122 59.0854 7.22022C52.0225 0.317958 40.5713 0.318109 33.5084 7.22022L32.6448 8.13531C25.4373 2.30282 14.0296 1.83169 7.38199 8.32772C0.319031 15.2298 0.319031 26.4202 7.38199 33.3222L7.70689 33.501C7.51742 34.7264 7.92216 36.0291 8.88992 36.9744C10.4802 38.5289 13.059 38.5284 14.6494 36.9742L14.6346 37.028C13.044 38.5826 13.1135 41.1023 14.7041 42.6564C16.2946 44.2109 18.8733 44.2106 20.4635 42.6563L20.4489 42.71C18.8582 44.2643 18.9278 46.7845 20.5182 48.3383C22.1088 49.8926 24.6876 49.8923 26.278 48.3383L27.3969 47.2531C25.8062 48.8074 25.8066 51.3271 27.3969 52.8813L31.4379 56.8305C33.0284 58.3848 35.6073 58.3168 37.1977 56.7625C38.7882 55.2082 38.7876 52.6885 37.1975 51.1342L37.2523 51.1485C38.843 52.7028 41.4216 52.635 43.0118 51.0807C44.6027 49.5264 44.6022 47.0064 43.0118 45.4523L43.0665 45.4667C44.6572 47.021 47.2359 46.9529 48.8264 45.3988C50.4168 43.8444 50.4163 41.3247 48.8263 39.7705L48.8811 39.7847C50.4716 41.3389 53.0503 41.2713 54.6406 39.717C55.8426 38.5423 56.1361 36.8162 55.5213 35.3722L58.0997 33.1775Z" fill="white"/>
<path d="M26.7864 13.8321L33.7528 20.6458C37.1393 24.0086 42.4514 24.0086 45.7282 20.8065L33.9119 9.25911M33.9444 9.29095C26.8815 2.38883 14.4449 1.42576 7.38199 8.32772C0.319031 15.2298 0.319031 26.4202 7.38199 33.3222M26.6712 13.9019L8.82043 31.3462C7.22957 32.9004 7.29906 35.4204 8.88992 36.9744C10.4802 38.5289 13.059 38.5284 14.6494 36.9742M26.6577 25.2785L14.6346 37.028C13.044 38.5826 13.1135 41.1023 14.7041 42.6564C16.2946 44.2109 18.8733 44.2106 20.4635 42.6563L32.4867 30.9066M20.4489 42.71C18.8582 44.2643 18.9278 46.7845 20.5182 48.3383C22.1088 49.8926 24.6876 49.8923 26.278 48.3383M56.4661 34.7739L58.0997 33.1775C65.1627 26.2754 66.1481 14.122 59.0854 7.22022C52.0225 0.317958 40.5713 0.318109 33.5084 7.22022L33.0122 7.7078M31.4379 56.8305C33.0284 58.3848 35.6073 58.3168 37.1977 56.7625C38.7882 55.2082 38.7876 52.6885 37.1975 51.1342L33.1564 47.1852C31.5659 45.6309 28.987 45.6988 27.3969 47.2531C25.8062 48.8074 25.8066 51.3271 27.3969 52.8813L31.4379 56.8305ZM37.2523 51.1485C38.843 52.7028 41.4216 52.635 43.0118 51.0807C44.6027 49.5264 44.6022 47.0064 43.0118 45.4523L38.9709 41.5034C37.38 39.949 34.8012 40.017 33.2111 41.571C31.6205 43.1253 31.6209 45.6453 33.2111 47.1996L37.2523 51.1485ZM43.0665 45.4667C44.6572 47.021 47.2359 46.9529 48.8264 45.3988C50.4168 43.8444 50.4163 41.3247 48.8263 39.7705L44.785 35.8215C43.1945 34.2669 40.6156 34.3349 39.0255 35.8892C37.4347 37.4436 37.4352 39.9635 39.0255 41.5177L43.0665 45.4667ZM48.8811 39.7847C50.4716 41.3389 53.0503 41.2713 54.6406 39.717C56.2311 38.1626 56.2308 35.6427 54.6405 34.0885L50.5995 30.1393C49.0086 28.5851 46.4302 28.653 44.8397 30.2073C43.2491 31.7615 43.2496 34.2816 44.8398 35.8357L48.8811 39.7847Z" stroke="black" stroke-width="3" stroke-linecap="round"/>
</g>
<defs>
<clipPath id="clip0_108_2">
<rect width="66" height="60" fill="white" transform="matrix(-1 0 0 1 66 0)"/>
</clipPath>
</defs>
</svg>
