<svg width="24" height="24" viewBox="0 0 24 24" fill="none" xmlns="http://www.w3.org/2000/svg">
<g clip-path="url(#clip0_104_2)">
<path fill-rule="evenodd" clip-rule="evenodd" d="M21.546 5.11101C21.8272 5.3923 21.9852 5.77376 21.9852 6.17151C21.9852 6.56925 21.8272 6.95071 21.546 7.23201L10.303 18.475C10.1544 18.6236 9.97805 18.7415 9.7839 18.8219C9.58976 18.9024 9.38167 18.9438 9.17153 18.9438C8.96138 18.9438 8.75329 18.9024 8.55915 18.8219C8.365 18.7415 8.1886 18.6236 8.04003 18.475L2.45403 12.89C2.31076 12.7516 2.19649 12.5861 2.11787 12.4031C2.03926 12.2201 1.99788 12.0233 1.99615 11.8241C1.99442 11.6249 2.03237 11.4274 2.10779 11.2431C2.18322 11.0587 2.29459 10.8913 2.43543 10.7504C2.57627 10.6096 2.74375 10.4982 2.92809 10.4228C3.11244 10.3474 3.30996 10.3094 3.50913 10.3111C3.7083 10.3129 3.90513 10.3542 4.08813 10.4329C4.27114 10.5115 4.43666 10.6257 4.57503 10.769L9.17103 15.365L19.424 5.11101C19.5633 4.97162 19.7287 4.86104 19.9108 4.7856C20.0928 4.71016 20.288 4.67133 20.485 4.67133C20.6821 4.67133 20.8772 4.71016 21.0593 4.7856C21.2413 4.86104 21.4067 4.97162 21.546 5.11101Z" fill="#4ECB71"/>
</g>
<defs>
<clipPath id="clip0_104_2">
<rect width="24" height="24" fill="white"/>
</clipPath>
</defs>
</svg>
